<svg width="293" height="47" viewBox="0 0 293 47" xmlns="http://www.w3.org/2000/svg" xmlns:xlink="http://www.w3.org/1999/xlink">
    <defs>
        <path id="a" d="M0 0h46.136v46.163H0z"/>
        <path id="c" d="M0 0h9.637v36.105H0z"/>
    </defs>
    <g fill="none" fill-rule="evenodd">
        <path d="M46.055 13.83v21.21c-.27 3.11-1.51 5.83-3.83 8.1-2.31 2.26-5.08 3.47-8.25 3.64h-20.65c-7.28 0-13.19-5.9-13.19-13.19V13.83c0-2.58.74-4.98 2.02-7.01 1.78-2.84 4.62-4.95 7.95-5.78.59-.15 1.18-.26 1.79-.32.18-.02.36-.03.54-.04.29-.03.59-.04.89-.04h19.54c.27 0 .54.01.81.03.18.01.36.02.54.04 6.65.67 11.84 6.3 11.84 13.12" fill="#FFF"/>
        <g transform="translate(0 .66)">
            <mask id="b" fill="#fff">
                <use xlink:href="#a"/>
            </mask>
            <path d="M29.755 37.16c-1.19.71-2.46 1.15-3.87 1.22-2.68.15-5.21-.46-7.69-1.43-1.13-.45-2.28-.87-3.46-1.19-.88-.24-1.23 0-1.3.91-.04.66.22 1.27.32 1.9.11.73.22 1.46.34 2.18.04.23-.05.28-.26.32-1.04.18-1.04.19-1.68-.64-1.2-1.56-2.39-3.13-3.61-4.68-.44-.56-.96-1.07-1.46-1.59-1.6-1.7-2.61-3.62-2.32-6.03.07-.59.24-1.17.43-1.74.1-.31.23-.31.49-.17 1.64.87 3.29 1.73 4.92 2.61 3.15 1.69 6.34 3.33 9.37 5.23.86.53 1.78.98 2.73 1.36.83.32 1.54.16 2.24-.31.85-.57 1.65-1.21 2.33-1.98.26-.28.53-.36.9-.32 1.45.14 2.9.24 4.35.37.83.06 1.65.14 2.61.23-.62.47-1.15.9-1.71 1.29-1.2.85-2.4 1.71-3.67 2.46m2.35-.99c.21-.21.46-.37.69-.55.87-.62 1.78-1.18 2.72-1.68.44-.24.86-.52 1.14-.92 1.08-1.51 2.58-2.46 4.19-3.29.65-.35 1.32-.67 1.87-1.19 1.15-1.11 2.18-2.32 3.22-3.52a.456.456 0 0 0 .12-.19c.05-.11.06-.23.06-.36-.01-1.22 0-2.44-.01-3.67-.02-2.92.11-5.84-.05-8.76-.21-3.67-1.79-6.7-4.6-9.06-2.12-1.78-4.56-2.73-7.24-2.93-.18-.02-.36-.03-.54-.04-.18 0-.37-.01-.55-.01h-20.01c-.23 0-.45.01-.68.02-.18.01-.36.02-.54.04-.5.03-1 .1-1.5.19-.14.03-.24.05-.29.13-.05.06-.06.15-.02.31.56 2.61 1.08 5.23 1.62 7.84.25 1.19.51 2.4 1.38 3.34 1.6 1.74 2.81 3.75 3.99 5.78 1.08 1.85 1.99 3.8 3.08 5.65 1.62 2.75 3.92 4.55 7.04 5.31.24.06.47.15.68.28.55.35.58.83.07 1.24-.38.32-.84.45-1.31.54-1.68.32-3.35.14-5.04.06-1.62-.09-2.82-.88-3.92-1.94-.83-.8-1.6-1.64-2.32-2.53-.79-.97-1.8-1.53-2.97-1.85-.55-.15-1.11-.31-1.67-.41-1.66-.32-3.34-.59-5-.94-1.61-.33-2.3-1.28-2.2-2.91.03-.53.16-1.04.35-1.53.43-1.07.54-2.18.55-3.31.02-1.41-.16-2.81-.26-4.21-.13-1.78-.73-3.36-1.83-4.76a.729.729 0 0 0-.17-.18c-.11-.1-.21-.07-.36.19-1.15 1.99-1.78 4.14-1.78 6.44-.02 6.86-.02 13.73 0 20.59 0 2.07.46 4.05 1.47 5.86 2.53 4.53 6.42 6.85 11.61 6.91 3.31.03 6.62 0 9.93 0 3.44 0 6.87.03 10.31-.01.21 0 .43-.01.64-.02 3.17-.17 5.94-1.38 8.25-3.64 2.32-2.27 3.56-4.99 3.83-8.1.04-.49.06-.99.06-1.49 0-.13-.02-.24-.06-.33-.1-.27-.35-.33-.73-.16-.2.09-.36.24-.49.42-.52.73-1.05 1.45-1.56 2.19-1.22 1.76-2.41 3.55-3.63 5.31-.61.87-1.46 1.21-2.51 1.05a11.67 11.67 0 0 0-2.21-.12l-2.46.12c-1.29.05-2.58.21-3.87-.11-1.33-.34-2.66-.7-4.03-.86-.36-.04-.71-.2-1.01-.44-.24-.19-.52-.41-.42-.76.1-.34.44-.41.75-.45.49-.07.99-.06 1.48.04.59.13 1.16.34 1.75.4 3.03.3 5.95-.09 8.73-1.37.15-.07.33-.11.43-.25.18-.23.22-.49.02-.72-.2-.22-.38-.06-.56.08-.66.54-1.42.87-2.22 1.11-.27.09-.55.11-.83.06-.57-.12-.99-.45-1.15-1.01-.13-.47.31-.66.57-.92" fill="#E12C35" mask="url(#b)"/>
        </g>
        <path d="M201.59 19.053c-2.16-.008-3.82 1.71-3.839 3.972-.017 2.263 1.627 4.026 3.77 4.04 2.19.013 3.855-1.71 3.858-3.992.003-2.269-1.64-4.013-3.789-4.02zm-4.236-6.49c1.135-1.176 2.292-2.137 3.772-2.547 3.55-.982 6.782-.253 9.6 2.072 2.944 2.43 4.495 5.655 4.87 9.415.433 4.345-.76 8.238-3.807 11.394-3.232 3.35-7.186 4.401-11.703 3.077-.85-.249-1.587-.729-2.334-1.372v.57c0 3.555-.007 7.11.008 10.665.002.378-.086.493-.48.49a758.25 758.25 0 0 0-8.679 0c-.382.002-.488-.096-.487-.483.01-11.668.01-23.338.001-35.006 0-.353.085-.459.45-.488 2.711-.217 5.42-.46 8.13-.7.66-.057.66-.064.66.575v2.338zM77.653 25.039c-.154 1.09-.301 2.14-.451 3.19-.323 2.246-.653 4.49-.97 6.736-.108.764-.09.78-.873.94-4.215.859-8.426.985-12.544-.417-6.14-2.09-10.35-6.12-11.75-12.576C49.24 14.494 53.194 5.537 62.82 2.4c3.957-1.29 7.992-1.53 12.07-.57.328.077.516.186.582.567.57 3.236 1.167 6.468 1.754 9.702.019.102.012.21.02.36-.96-.346-1.873-.724-2.838-.93-2.63-.557-5.234-.51-7.735.545-2.76 1.163-4.287 3.282-4.457 6.277-.18 3.187 1.24 5.527 4.018 7.05 1.8.99 3.756 1.266 5.784 1.17 1.91-.09 3.719-.546 5.408-1.453.052-.028.113-.04.226-.08M274.357 26.898c1.32-.008 2.544-.558 3.21-2.005.593-1.287.572-2.614.007-3.895-.732-1.658-2.605-2.425-4.452-1.861-1.646.503-2.375 1.73-2.521 3.355-.204 2.262.99 4.328 3.756 4.405m13.688-3.93c-.118 4.965-2.08 8.889-6.533 11.354-2.703 1.495-5.64 1.933-8.693 1.68-2.837-.234-5.433-1.128-7.67-2.925-2.675-2.15-4.13-4.979-4.521-8.363-.292-2.512-.04-4.966.99-7.299 1.554-3.522 4.247-5.807 7.896-6.897 4.267-1.274 8.449-1 12.36 1.245 3.594 2.061 5.523 5.27 6.054 9.35.08.615.1 1.23.117 1.856M173.25 25.103c-1.458-.005-2.502.946-2.504 2.28-.002 1.373 1.007 2.343 2.444 2.349 1.406.008 2.465-1.002 2.46-2.346-.005-1.323-1.008-2.28-2.4-2.283m2.975 8.5c-1.107 1.353-2.493 2.204-4.155 2.588-2.284.529-4.544.526-6.691-.555-2.897-1.456-4.383-3.891-4.745-7.048-.294-2.557.354-4.845 2.15-6.738 1.446-1.523 3.25-2.377 5.32-2.668 2.311-.325 4.774-.016 7.19 1.794-.019-.958.11-1.875-.273-2.755-.441-1.015-1.31-1.443-2.32-1.636-1.786-.341-3.567-.195-5.341.138-1.23.23-2.425.596-3.607.975-.137-.096-.061-.21-.038-.301.51-2.113 1.035-4.224 1.531-6.341.067-.291.2-.414.466-.478 3.76-.9 7.56-1.258 11.405-.75 2.117.28 4.07 1.044 5.67 2.519 1.907 1.756 2.66 4.016 2.673 6.535.028 5.47.005 10.943.018 16.415 0 .376-.125.456-.469.483-2.802.226-5.605.466-8.405.719-.322.029-.393-.053-.386-.355.019-.847.007-1.694.007-2.541M230.346 25.103c-1.415 0-2.472.96-2.48 2.256-.01 1.382 1.003 2.358 2.464 2.375 1.403.016 2.441-.983 2.44-2.347 0-1.353-.99-2.284-2.424-2.284m2.994 8.354c-1.1 1.51-2.489 2.352-4.149 2.736-2.453.567-4.866.517-7.103-.775-2.9-1.676-4.22-4.296-4.38-7.581-.228-4.677 3.323-8.132 7.633-8.671 2.563-.32 4.916.168 6.992 1.777.351-2.545-.278-4.118-3.049-4.451-2.749-.33-5.38.233-7.973 1.069-.132.043-.264.086-.398.125-.024.007-.055-.005-.133-.015.196-.824.388-1.643.587-2.46.335-1.38.683-2.755 1.005-4.136.07-.294.201-.435.494-.505 3.731-.885 7.502-1.25 11.317-.747 2.232.293 4.27 1.1 5.92 2.71 1.457 1.424 2.173 3.192 2.412 5.18.08.662.085 1.326.085 1.99-.003 5.18-.008 10.359.01 15.538 0 .407-.115.51-.505.542-2.789.22-5.575.46-8.362.716-.35.032-.416-.07-.409-.387.018-.833.006-1.667.006-2.655M92.816 25.103c-1.436-.006-2.48.932-2.49 2.242-.015 1.409.983 2.384 2.443 2.389 1.418.004 2.439-.981 2.443-2.357.002-1.33-.986-2.267-2.396-2.274m2.984 8.506c-.851.963-1.786 1.77-2.978 2.189-3.31 1.162-6.512 1.11-9.396-1.128-2.266-1.76-3.213-4.206-3.282-7.012-.114-4.63 3.36-7.91 7.537-8.477 2.573-.35 4.949.118 7.045 1.725.02.015.058.01.134.02.012-.846.095-1.69-.185-2.506-.33-.963-1.062-1.494-2.012-1.741-1.523-.396-3.064-.326-4.606-.138-1.63.199-3.196.662-4.8 1.176.033-.52.193-.965.302-1.42.417-1.74.85-3.475 1.254-5.217.069-.297.194-.436.487-.51 2.41-.607 4.86-.878 7.34-.947 1.925-.054 3.834.01 5.697.56 3.138.925 5.419 2.758 6.333 6.02.235.837.356 1.69.356 2.56 0 5.504-.003 11.007.009 16.51 0 .379-.106.483-.484.512-2.773.217-5.545.456-8.315.709-.352.032-.456-.031-.444-.394.027-.83.008-1.661.008-2.491M132.444 30.79h7.85c-.358 1.697-.705 3.355-1.055 5.013-.27 1.268-.544 2.534-.802 3.804-.05.248-.124.358-.41.358-6.513-.009-13.026-.008-19.54-.009-.03 0-.061-.01-.166-.028l7.487-16.15h-.592c-1.78 0-3.558-.006-5.336.005-.305.002-.386-.043-.316-.379.59-2.807 1.16-5.618 1.732-8.429.045-.23.098-.367.4-.366 5.972.012 11.944.01 17.916.01.06 0 .12.012.232.024-2.464 5.38-4.92 10.735-7.4 16.147" fill="#26376D"/>
        <path d="M151.405 19.442h3.955c1.19 0 2.383.003 3.574-.005.235-.002.334.035.276.306a1118 1118 0 0 0-1.81 8.509c-.054.253-.141.319-.386.319-6.498-.007-12.996-.006-19.494-.007-.057 0-.114-.015-.218-.032l7.474-16.137h-.552c-1.778 0-3.558-.01-5.337.008-.353.003-.411-.104-.344-.421.585-2.792 1.164-5.585 1.73-8.381.052-.253.113-.369.402-.368 5.987.008 11.974.007 17.962.008.03 0 .06.01.168.027-2.463 5.386-4.92 10.754-7.4 16.174M254.96.006v4.847c0 2.117.007 4.235-.007 6.353-.002.31.061.428.4.417.772-.027 1.546 0 2.32-.014.28-.005.413.04.411.373a603.858 603.858 0 0 0 0 6.863c.001.295-.095.365-.373.358-.773-.017-1.547.004-2.32-.011-.259-.005-.345.063-.344.333.012 2.133-.013 4.266.016 6.399.02 1.5.443 1.882 1.935 1.883.448 0 .9.026 1.34-.083.297-.074.38.01.323.314-.264 1.442-.516 2.886-.77 4.329-.214 1.2-.42 2.402-.639 3.6-.035.198-.02.423-.344.447-2.04.154-4.079.22-6.08-.306-3.267-.86-5.135-3.181-5.344-6.568-.078-1.265-.056-2.532-.064-3.798-.032-5.394-.028-10.79-.042-16.183-.004-1.623-.022-3.245-.034-4.867-.002-.22-.012-.398.261-.52 3.057-1.36 6.107-2.736 9.161-4.107.052-.024.111-.034.194-.06" fill="#26376D"/>
        <path d="M117.869 46.252H50.834c-.606 0-.606 0-.606-.618 0-.541.013-1.083-.006-1.623-.01-.271.086-.364.344-.33.092.011.186.001.279.001h134.163c.61 0 .61.001.61.618 0 .526-.02 1.053.008 1.577.016.318-.104.415-.397.377-.107-.013-.216-.002-.325-.002h-67.035z" fill="#E23137"/>
        <g transform="translate(107.32)">
            <mask id="d" fill="#fff">
                <use xlink:href="#c"/>
            </mask>
            <path d="M9.627 17.69c0 5.718-.005 11.438.01 17.156.002.404-.111.527-.502.555-2.944.22-5.885.456-8.826.7-.223.017-.325-.011-.3-.25.01-.091.002-.184.002-.277C.011 24.15.014 12.729 0 1.306 0 .874.098.748.545.714 3.411.505 6.275.269 9.138.007c.443-.04.498.088.497.48-.012 5.734-.008 11.47-.008 17.203" fill="#26376D" mask="url(#d)"/>
        </g>
        <path d="M243.972 46.252c-14.497 0-28.994-.003-43.492.012-.478.001-.613-.121-.575-.585.043-.523.034-1.052.002-1.576-.024-.365.114-.475.448-.422.045.008.092.001.138.001 28.996 0 57.99 0 86.985.002.652 0 .584-.096.59.594.002.51-.027 1.022.008 1.53.026.384-.123.497-.473.446-.09-.013-.186-.002-.277-.002h-43.354z" fill="#E23137"/>
        <path d="M287.256 4.079c0 .783 0 .788.767.778.244-.003.491-.023.731-.068.386-.071.58-.324.584-.714.005-.388-.23-.596-.577-.666-.254-.052-.52-.053-.779-.055-.726-.007-.726-.003-.726.725m2.968 3.598c-.646.225-.983-.056-1.235-.58-.199-.415-.497-.783-.7-1.196-.166-.335-.396-.411-.74-.396-.266.01-.35.099-.345.356.013.525-.014 1.05.01 1.575.018.368-.22.29-.425.294-.212.004-.414.057-.409-.305.022-1.483.01-2.966.01-4.45 0-.151-.036-.316.216-.305.817.037 1.64-.075 2.452.077.7.132 1.072.528 1.104 1.167.044.877-.216 1.312-.968 1.5-.339.086-.297.196-.146.425.398.603.78 1.217 1.176 1.838" fill="#26376D"/>
        <path d="M292.145 5.21a3.843 3.843 0 1 1-7.686 0 3.843 3.843 0 0 1 7.686 0z" stroke="#23376C" stroke-width=".25"/>
    </g>
</svg>
